<svg xmlns="http://www.w3.org/2000/svg" viewBox="0 0 64 64" width="64" height="64">
  <title>Mrs Peacock</title>
  <defs><clipPath id="d"><circle cx="32" cy="32" r="29.5"/></clipPath></defs>
  <circle cx="32" cy="32" r="30.5" fill="#24548f" stroke="#141414" stroke-width="2.5"/>
  <g clip-path="url(#d)"><circle cx="32" cy="24" r="9.5" fill="#f4f1ea"/><path d="M12.5 58 a19.5 18 0 0 1 39 0 z" fill="#ddd6c9"/><circle cx="28.4" cy="23" r="1.35" fill="#0e2949"/><circle cx="35.6" cy="23" r="1.35" fill="#0e2949"/><path d="M11 20 c7.5 -7.5 34.5 -7.5 42 0 c-7.5 3.6 -34.5 3.6 -42 0 z" fill="#0e2949"/><path d="M40 17 c7.5 -12.5 14.5 -9 11.5 -1.8 c-2.6 6.2 -8.4 5.6 -11.5 1.8 z" fill="#0e2949"/><path d="M23 41 c5.2 5 13.8 5 18 0" fill="none" stroke="#ffffff" stroke-width="2.4" stroke-dasharray="1.4 2.6" stroke-linecap="round"/><path d="M29.5 28.5 c1.6 1.1 3.4 1.1 5 0" fill="none" stroke="#0e2949" stroke-width="1.3" stroke-linecap="round"/></g>
</svg>
