<svg xmlns="http://www.w3.org/2000/svg" viewBox="0 0 64 64" width="64" height="64">
  <title>Miss Scarlett</title>
  <defs><pattern id="p50" width="4" height="4" patternUnits="userSpaceOnUse"><rect width="4" height="4" fill="#fff"/><rect width="2" height="2"/><rect x="2" y="2" width="2" height="2"/></pattern><clipPath id="d"><circle cx="32" cy="32" r="28"/></clipPath></defs>
  <circle cx="32" cy="32" r="30" fill="#fff" stroke="#000" stroke-width="4"/>
  <g clip-path="url(#d)" fill="#fff" stroke="#000" stroke-width="2.4"
     stroke-linejoin="round"><path d="M13 60 a19 17 0 0 1 38 0 z" fill="url(#p50)"/><circle cx="32" cy="24" r="9"/><circle cx="28.6" cy="22.5" r="1.5" fill="#000" stroke="none"/><circle cx="35.4" cy="22.5" r="1.5" fill="#000" stroke="none"/><path d="M28.5 30.5 q3.5 2 7 0" fill="none" stroke-width="1.8"/><path d="M23.5 20.5 c1 -10 16 -10 17 0 c-3 -6 -14 -6 -17 0 z" fill="#000"/><path d="M23 19 c-4.5 7 -5 20 -3 28 l4.5 -1.5 c-2.5 -8 -2 -18 0.5 -24 z" fill="#000"/><path d="M41 19 c4.5 7 5 20 3 28 l-4.5 -1.5 c2.5 -8 2 -18 -0.5 -24 z" fill="#000"/></g>
</svg>
