<svg xmlns="http://www.w3.org/2000/svg" viewBox="0 0 320 200" width="320" height="200">
  <title>The library</title>
  <defs>
    <clipPath id="f"><rect x="3" y="3" width="314" height="194"/></clipPath>
    <linearGradient id="wall" x1="0" y1="0" x2="0" y2="1"><stop offset="0" stop-color="#2a231a"/><stop offset="1" stop-color="#4a3d2b"/></linearGradient><radialGradient id="lamp" cx="0.5" cy="0.5" r="0.5"><stop offset="0" stop-color="#ffe6a8" stop-opacity="0.85"/><stop offset="0.5" stop-color="#c99a4a" stop-opacity="0.25"/><stop offset="1" stop-color="#000" stop-opacity="0"/></radialGradient><linearGradient id="floor" x1="0" y1="0" x2="0" y2="1"><stop offset="0" stop-color="#4a3b28"/><stop offset="1" stop-color="#241c13"/></linearGradient>
  </defs>
  <g clip-path="url(#f)"><rect width="320" height="200" fill="url(#wall)"/><path d="M28 0 q132 46 264 0" fill="none" stroke="#1c1710" stroke-width="3.0" opacity="0.80"/><path d="M34 0 q126 38 252 0" fill="none" stroke="#1c1710" stroke-width="2.6" opacity="0.67"/><path d="M40 0 q120 30 240 0" fill="none" stroke="#1c1710" stroke-width="2.2" opacity="0.54"/><path d="M46 0 q114 22 228 0" fill="none" stroke="#1c1710" stroke-width="1.8" opacity="0.41"/><path d="M52 0 q108 14 216 0" fill="none" stroke="#1c1710" stroke-width="1.4" opacity="0.28"/><path d="M0 146 h320 v54 h-320 z" fill="url(#floor)"/><path d="M160 146 L-60 200" stroke="#1c1610" stroke-width="1.2" opacity="0.6"/><path d="M160 146 L2 200" stroke="#1c1610" stroke-width="1.2" opacity="0.6"/><path d="M160 146 L64 200" stroke="#1c1610" stroke-width="1.2" opacity="0.6"/><path d="M160 146 L126 200" stroke="#1c1610" stroke-width="1.2" opacity="0.6"/><path d="M160 146 L188 200" stroke="#1c1610" stroke-width="1.2" opacity="0.6"/><path d="M160 146 L250 200" stroke="#1c1610" stroke-width="1.2" opacity="0.6"/><path d="M160 146 L312 200" stroke="#1c1610" stroke-width="1.2" opacity="0.6"/><path d="M160 146 L374 200" stroke="#1c1610" stroke-width="1.2" opacity="0.6"/><path d="M160 146 L436 200" stroke="#1c1610" stroke-width="1.2" opacity="0.6"/><g><rect x="6" y="40" width="54" height="104" fill="#1e1810"/><rect x="6" y="40" width="54" height="104" fill="none" stroke="#3d3222" stroke-width="2"/><rect x="11" y="30.0" width="4" height="16" fill="#3f5240"/><rect x="11" y="30.0" width="1" height="16" fill="#000" opacity="0.25"/><rect x="16" y="25.0" width="3" height="21" fill="#6b3838"/><rect x="16" y="25.0" width="1" height="21" fill="#000" opacity="0.25"/><rect x="20" y="25.0" width="5" height="21" fill="#5f4a2c"/><rect x="20" y="25.0" width="1" height="21" fill="#000" opacity="0.25"/><rect x="26" y="25.0" width="3" height="21" fill="#7d4a2e"/><rect x="26" y="25.0" width="1" height="21" fill="#000" opacity="0.25"/><rect x="30" y="25.0" width="5" height="21" fill="#4a4160"/><rect x="30" y="25.0" width="1" height="21" fill="#000" opacity="0.25"/><rect x="36" y="25.0" width="3" height="21" fill="#3f5240"/><rect x="36" y="25.0" width="1" height="21" fill="#000" opacity="0.25"/><rect x="40" y="30.0" width="4" height="16" fill="#3f5240"/><rect x="40" y="30.0" width="1" height="16" fill="#000" opacity="0.25"/><rect x="45" y="30.0" width="3" height="16" fill="#7d4a2e"/><rect x="45" y="30.0" width="1" height="16" fill="#000" opacity="0.25"/><rect x="49" y="30.0" width="6" height="16" fill="#6b3838"/><rect x="49" y="30.0" width="1" height="16" fill="#000" opacity="0.25"/><rect x="11" y="62.0" width="3" height="16" fill="#7d4a2e"/><rect x="11" y="62.0" width="1" height="16" fill="#000" opacity="0.25"/><rect x="15" y="60.0" width="4" height="18" fill="#7a6a3a"/><rect x="15" y="60.0" width="1" height="18" fill="#000" opacity="0.25"/><rect x="20" y="58.0" width="4" height="20" fill="#4a4160"/><rect x="20" y="58.0" width="1" height="20" fill="#000" opacity="0.25"/><rect x="25" y="62.0" width="4" height="16" fill="#4a4160"/><rect x="25" y="62.0" width="1" height="16" fill="#000" opacity="0.25"/><rect x="30" y="57.0" width="4" height="21" fill="#7a6a3a"/><rect x="30" y="57.0" width="1" height="21" fill="#000" opacity="0.25"/><rect x="35" y="58.0" width="5" height="20" fill="#4a4160"/><rect x="35" y="58.0" width="1" height="20" fill="#000" opacity="0.25"/><rect x="41" y="58.0" width="5" height="20" fill="#7d4a2e"/><rect x="41" y="58.0" width="1" height="20" fill="#000" opacity="0.25"/><rect x="47" y="58.0" width="3" height="20" fill="#6b3838"/><rect x="47" y="58.0" width="1" height="20" fill="#000" opacity="0.25"/><rect x="51" y="57.0" width="4" height="21" fill="#6b3838"/><rect x="51" y="57.0" width="1" height="21" fill="#000" opacity="0.25"/><rect x="11" y="92.0" width="4" height="18" fill="#3f5240"/><rect x="11" y="92.0" width="1" height="18" fill="#000" opacity="0.25"/><rect x="16" y="89.0" width="6" height="21" fill="#7a6a3a"/><rect x="16" y="89.0" width="1" height="21" fill="#000" opacity="0.25"/><rect x="23" y="94.0" width="6" height="16" fill="#4a4160"/><rect x="23" y="94.0" width="1" height="16" fill="#000" opacity="0.25"/><rect x="30" y="89.0" width="3" height="21" fill="#3f5240"/><rect x="30" y="89.0" width="1" height="21" fill="#000" opacity="0.25"/><rect x="34" y="92.0" width="6" height="18" fill="#5f4a2c"/><rect x="34" y="92.0" width="1" height="18" fill="#000" opacity="0.25"/><rect x="41" y="89.0" width="5" height="21" fill="#6b3838"/><rect x="41" y="89.0" width="1" height="21" fill="#000" opacity="0.25"/><rect x="47" y="92.0" width="4" height="18" fill="#7a6a3a"/><rect x="47" y="92.0" width="1" height="18" fill="#000" opacity="0.25"/><rect x="52" y="89.0" width="4" height="21" fill="#7a6a3a"/><rect x="52" y="89.0" width="1" height="21" fill="#000" opacity="0.25"/></g><g><rect x="66" y="46" width="46" height="96" fill="#1e1810"/><rect x="66" y="46" width="46" height="96" fill="none" stroke="#3d3222" stroke-width="2"/><rect x="71" y="34.0" width="4" height="18" fill="#6b3838"/><rect x="71" y="34.0" width="1" height="18" fill="#000" opacity="0.25"/><rect x="76" y="36.0" width="3" height="16" fill="#4a4160"/><rect x="76" y="36.0" width="1" height="16" fill="#000" opacity="0.25"/><rect x="80" y="32.0" width="3" height="20" fill="#4a4160"/><rect x="80" y="32.0" width="1" height="20" fill="#000" opacity="0.25"/><rect x="84" y="34.0" width="3" height="18" fill="#7d4a2e"/><rect x="84" y="34.0" width="1" height="18" fill="#000" opacity="0.25"/><rect x="88" y="31.0" width="3" height="21" fill="#6b3838"/><rect x="88" y="31.0" width="1" height="21" fill="#000" opacity="0.25"/><rect x="92" y="34.0" width="3" height="18" fill="#7d4a2e"/><rect x="92" y="34.0" width="1" height="18" fill="#000" opacity="0.25"/><rect x="96" y="31.0" width="6" height="21" fill="#7d4a2e"/><rect x="96" y="31.0" width="1" height="21" fill="#000" opacity="0.25"/><rect x="103" y="36.0" width="6" height="16" fill="#5f4a2c"/><rect x="103" y="36.0" width="1" height="16" fill="#000" opacity="0.25"/><rect x="71" y="61.33333333333333" width="4" height="20" fill="#6b3838"/><rect x="71" y="61.33333333333333" width="1" height="20" fill="#000" opacity="0.25"/><rect x="76" y="63.33333333333333" width="4" height="18" fill="#7a6a3a"/><rect x="76" y="63.33333333333333" width="1" height="18" fill="#000" opacity="0.25"/><rect x="81" y="65.33333333333333" width="3" height="16" fill="#5f4a2c"/><rect x="81" y="65.33333333333333" width="1" height="16" fill="#000" opacity="0.25"/><rect x="85" y="63.33333333333333" width="4" height="18" fill="#6b3838"/><rect x="85" y="63.33333333333333" width="1" height="18" fill="#000" opacity="0.25"/><rect x="90" y="60.33333333333333" width="3" height="21" fill="#6b3838"/><rect x="90" y="60.33333333333333" width="1" height="21" fill="#000" opacity="0.25"/><rect x="94" y="60.33333333333333" width="5" height="21" fill="#6b3838"/><rect x="94" y="60.33333333333333" width="1" height="21" fill="#000" opacity="0.25"/><rect x="100" y="63.33333333333333" width="6" height="18" fill="#6b3838"/><rect x="100" y="63.33333333333333" width="1" height="18" fill="#000" opacity="0.25"/><rect x="71" y="90.66666666666666" width="5" height="20" fill="#3f5240"/><rect x="71" y="90.66666666666666" width="1" height="20" fill="#000" opacity="0.25"/><rect x="77" y="92.66666666666666" width="4" height="18" fill="#7a6a3a"/><rect x="77" y="92.66666666666666" width="1" height="18" fill="#000" opacity="0.25"/><rect x="82" y="90.66666666666666" width="3" height="20" fill="#4a4160"/><rect x="82" y="90.66666666666666" width="1" height="20" fill="#000" opacity="0.25"/><rect x="86" y="94.66666666666666" width="5" height="16" fill="#3f5240"/><rect x="86" y="94.66666666666666" width="1" height="16" fill="#000" opacity="0.25"/><rect x="92" y="94.66666666666666" width="6" height="16" fill="#7a6a3a"/><rect x="92" y="94.66666666666666" width="1" height="16" fill="#000" opacity="0.25"/><rect x="99" y="92.66666666666666" width="5" height="18" fill="#7a6a3a"/><rect x="99" y="92.66666666666666" width="1" height="18" fill="#000" opacity="0.25"/></g><g><rect x="208" y="46" width="46" height="96" fill="#1e1810"/><rect x="208" y="46" width="46" height="96" fill="none" stroke="#3d3222" stroke-width="2"/><rect x="213" y="32.0" width="4" height="20" fill="#7a6a3a"/><rect x="213" y="32.0" width="1" height="20" fill="#000" opacity="0.25"/><rect x="218" y="34.0" width="4" height="18" fill="#7a6a3a"/><rect x="218" y="34.0" width="1" height="18" fill="#000" opacity="0.25"/><rect x="223" y="34.0" width="4" height="18" fill="#7a6a3a"/><rect x="223" y="34.0" width="1" height="18" fill="#000" opacity="0.25"/><rect x="228" y="34.0" width="4" height="18" fill="#7d4a2e"/><rect x="228" y="34.0" width="1" height="18" fill="#000" opacity="0.25"/><rect x="233" y="34.0" width="6" height="18" fill="#7a6a3a"/><rect x="233" y="34.0" width="1" height="18" fill="#000" opacity="0.25"/><rect x="240" y="36.0" width="4" height="16" fill="#6b3838"/><rect x="240" y="36.0" width="1" height="16" fill="#000" opacity="0.25"/><rect x="245" y="36.0" width="4" height="16" fill="#3f5240"/><rect x="245" y="36.0" width="1" height="16" fill="#000" opacity="0.25"/><rect x="213" y="63.33333333333333" width="3" height="18" fill="#3f5240"/><rect x="213" y="63.33333333333333" width="1" height="18" fill="#000" opacity="0.25"/><rect x="217" y="61.33333333333333" width="4" height="20" fill="#7a6a3a"/><rect x="217" y="61.33333333333333" width="1" height="20" fill="#000" opacity="0.25"/><rect x="222" y="60.33333333333333" width="3" height="21" fill="#3f5240"/><rect x="222" y="60.33333333333333" width="1" height="21" fill="#000" opacity="0.25"/><rect x="226" y="60.33333333333333" width="5" height="21" fill="#6b3838"/><rect x="226" y="60.33333333333333" width="1" height="21" fill="#000" opacity="0.25"/><rect x="232" y="61.33333333333333" width="3" height="20" fill="#5f4a2c"/><rect x="232" y="61.33333333333333" width="1" height="20" fill="#000" opacity="0.25"/><rect x="236" y="61.33333333333333" width="4" height="20" fill="#3f5240"/><rect x="236" y="61.33333333333333" width="1" height="20" fill="#000" opacity="0.25"/><rect x="241" y="63.33333333333333" width="4" height="18" fill="#5f4a2c"/><rect x="241" y="63.33333333333333" width="1" height="18" fill="#000" opacity="0.25"/><rect x="246" y="61.33333333333333" width="6" height="20" fill="#5f4a2c"/><rect x="246" y="61.33333333333333" width="1" height="20" fill="#000" opacity="0.25"/><rect x="213" y="94.66666666666666" width="4" height="16" fill="#4a4160"/><rect x="213" y="94.66666666666666" width="1" height="16" fill="#000" opacity="0.25"/><rect x="218" y="92.66666666666666" width="3" height="18" fill="#5f4a2c"/><rect x="218" y="92.66666666666666" width="1" height="18" fill="#000" opacity="0.25"/><rect x="222" y="94.66666666666666" width="3" height="16" fill="#7a6a3a"/><rect x="222" y="94.66666666666666" width="1" height="16" fill="#000" opacity="0.25"/><rect x="226" y="90.66666666666666" width="4" height="20" fill="#5f4a2c"/><rect x="226" y="90.66666666666666" width="1" height="20" fill="#000" opacity="0.25"/><rect x="231" y="90.66666666666666" width="3" height="20" fill="#6b3838"/><rect x="231" y="90.66666666666666" width="1" height="20" fill="#000" opacity="0.25"/><rect x="235" y="90.66666666666666" width="4" height="20" fill="#6b3838"/><rect x="235" y="90.66666666666666" width="1" height="20" fill="#000" opacity="0.25"/><rect x="240" y="90.66666666666666" width="4" height="20" fill="#5f4a2c"/><rect x="240" y="90.66666666666666" width="1" height="20" fill="#000" opacity="0.25"/><rect x="245" y="90.66666666666666" width="4" height="20" fill="#3f5240"/><rect x="245" y="90.66666666666666" width="1" height="20" fill="#000" opacity="0.25"/></g><g><rect x="260" y="40" width="54" height="104" fill="#1e1810"/><rect x="260" y="40" width="54" height="104" fill="none" stroke="#3d3222" stroke-width="2"/><rect x="265" y="25.0" width="4" height="21" fill="#7a6a3a"/><rect x="265" y="25.0" width="1" height="21" fill="#000" opacity="0.25"/><rect x="270" y="26.0" width="5" height="20" fill="#6b3838"/><rect x="270" y="26.0" width="1" height="20" fill="#000" opacity="0.25"/><rect x="276" y="25.0" width="4" height="21" fill="#4a4160"/><rect x="276" y="25.0" width="1" height="21" fill="#000" opacity="0.25"/><rect x="281" y="28.0" width="4" height="18" fill="#7d4a2e"/><rect x="281" y="28.0" width="1" height="18" fill="#000" opacity="0.25"/><rect x="286" y="26.0" width="3" height="20" fill="#4a4160"/><rect x="286" y="26.0" width="1" height="20" fill="#000" opacity="0.25"/><rect x="290" y="30.0" width="5" height="16" fill="#5f4a2c"/><rect x="290" y="30.0" width="1" height="16" fill="#000" opacity="0.25"/><rect x="296" y="28.0" width="4" height="18" fill="#7a6a3a"/><rect x="296" y="28.0" width="1" height="18" fill="#000" opacity="0.25"/><rect x="301" y="25.0" width="3" height="21" fill="#7a6a3a"/><rect x="301" y="25.0" width="1" height="21" fill="#000" opacity="0.25"/><rect x="305" y="25.0" width="5" height="21" fill="#7d4a2e"/><rect x="305" y="25.0" width="1" height="21" fill="#000" opacity="0.25"/><rect x="265" y="60.0" width="4" height="18" fill="#7d4a2e"/><rect x="265" y="60.0" width="1" height="18" fill="#000" opacity="0.25"/><rect x="270" y="57.0" width="6" height="21" fill="#5f4a2c"/><rect x="270" y="57.0" width="1" height="21" fill="#000" opacity="0.25"/><rect x="277" y="58.0" width="3" height="20" fill="#7d4a2e"/><rect x="277" y="58.0" width="1" height="20" fill="#000" opacity="0.25"/><rect x="281" y="58.0" width="4" height="20" fill="#7d4a2e"/><rect x="281" y="58.0" width="1" height="20" fill="#000" opacity="0.25"/><rect x="286" y="60.0" width="4" height="18" fill="#4a4160"/><rect x="286" y="60.0" width="1" height="18" fill="#000" opacity="0.25"/><rect x="291" y="62.0" width="5" height="16" fill="#4a4160"/><rect x="291" y="62.0" width="1" height="16" fill="#000" opacity="0.25"/><rect x="297" y="58.0" width="3" height="20" fill="#3f5240"/><rect x="297" y="58.0" width="1" height="20" fill="#000" opacity="0.25"/><rect x="301" y="60.0" width="5" height="18" fill="#5f4a2c"/><rect x="301" y="60.0" width="1" height="18" fill="#000" opacity="0.25"/><rect x="265" y="94.0" width="4" height="16" fill="#7d4a2e"/><rect x="265" y="94.0" width="1" height="16" fill="#000" opacity="0.25"/><rect x="270" y="90.0" width="6" height="20" fill="#6b3838"/><rect x="270" y="90.0" width="1" height="20" fill="#000" opacity="0.25"/><rect x="277" y="90.0" width="5" height="20" fill="#5f4a2c"/><rect x="277" y="90.0" width="1" height="20" fill="#000" opacity="0.25"/><rect x="283" y="90.0" width="4" height="20" fill="#6b3838"/><rect x="283" y="90.0" width="1" height="20" fill="#000" opacity="0.25"/><rect x="288" y="92.0" width="3" height="18" fill="#4a4160"/><rect x="288" y="92.0" width="1" height="18" fill="#000" opacity="0.25"/><rect x="292" y="94.0" width="5" height="16" fill="#7d4a2e"/><rect x="292" y="94.0" width="1" height="16" fill="#000" opacity="0.25"/><rect x="298" y="89.0" width="3" height="21" fill="#6b3838"/><rect x="298" y="89.0" width="1" height="21" fill="#000" opacity="0.25"/><rect x="302" y="89.0" width="3" height="21" fill="#3f5240"/><rect x="302" y="89.0" width="1" height="21" fill="#000" opacity="0.25"/><rect x="306" y="92.0" width="3" height="18" fill="#7d4a2e"/><rect x="306" y="92.0" width="1" height="18" fill="#000" opacity="0.25"/></g><ellipse cx="160" cy="120" rx="120" ry="86" fill="url(#lamp)"/><path d="M160 20 v26" stroke="#2a2118" stroke-width="2"/><path d="M146 46 h28 l6 12 h-40 z" fill="#6d5a34"/><circle cx="160" cy="62" r="5" fill="#ffe9b4"/><path d="M140 146 h40 l-6 -8 h-28 z" fill="#3f3322"/><path d="M152 138 h16 v-24 h-16 z" fill="#4a3b26"/><path d="M126 114 l34 -9 l34 9 l-34 7 z" fill="#e8dcc0"/><path d="M126 114 l34 -9 v16 z" fill="#d3c5a4"/><path d="M160 105 v16" stroke="#8a7a58" stroke-width="1.2"/></g>
  <rect x="1.5" y="1.5" width="317" height="197" fill="none" stroke="#1a1713" stroke-width="3"/>
</svg>
